<svg width="20" height="20" viewBox="0 0 20 20" fill="none" xmlns="http://www.w3.org/2000/svg">
<path d="M19.2013 7.79616H18.4203V7.75593H9.69491V11.6339H15.174C14.3746 13.8914 12.2267 15.5119 9.69491 15.5119C6.4825 15.5119 3.87796 12.9073 3.87796 9.69491C3.87796 6.4825 6.4825 3.87796 9.69491 3.87796C11.1777 3.87796 12.5268 4.43736 13.554 5.35111L16.2962 2.6089C14.5647 0.995183 12.2486 0 9.69491 0C4.3409 0 0 4.3409 0 9.69491C0 15.0489 4.3409 19.3898 9.69491 19.3898C15.0489 19.3898 19.3898 15.0489 19.3898 9.69491C19.3898 9.04487 19.3229 8.41034 19.2013 7.79616Z" fill="#FFC107"/>
<path d="M9.69498 19.3898C12.1992 19.3898 14.4746 18.4314 16.1949 16.873L13.1944 14.3339C12.1883 15.099 10.9589 15.5128 9.69498 15.5118C7.17334 15.5118 5.03221 13.9039 4.2256 11.66L1.06409 14.0959C2.66859 17.2356 5.92706 19.3898 9.69498 19.3898Z" fill="#4CAF50"/>
<path d="M19.2013 7.79622H18.4204V7.75598H9.69495V11.6339H15.174C14.7917 12.7083 14.1029 13.6472 13.1929 14.3345L13.1943 14.3335L16.1949 16.8726C15.9826 17.0655 19.3899 14.5424 19.3899 9.69496C19.3899 9.04492 19.323 8.41039 19.2013 7.79622Z" fill="#1976D2"/>
<path d="M1.1178 5.18242L4.30306 7.5184C5.16494 5.38455 7.25225 3.87796 9.69489 3.87796C11.1777 3.87796 12.5268 4.43736 13.5539 5.35111L16.2962 2.6089C14.5646 0.995183 12.2485 0 9.69489 0C5.97107 0 2.7417 2.10234 1.1178 5.18242Z" fill="#FF3D00"/>
</svg>
